<svg width="128" height="32" viewBox="0 0 128 32" fill="none" xmlns="http://www.w3.org/2000/svg">
<g clip-path="url(#clip0_155_51)">
<path d="M11.0112 25.733C11.0112 26.1328 10.3971 26.3328 9.57655 26.3328C7.52792 26.3328 6.09331 25.1335 6.09331 22.1354C6.09331 18.7372 7.93774 17.7365 10.3971 17.7365C11.4214 17.7365 12.2411 17.7365 13.4705 18.1379V15.3389C12.4462 15.1382 11.4214 15.1382 10.3971 15.1382C6.09331 15.1382 2.60938 17.3375 2.60938 22.1354C2.60938 26.9328 6.09331 28.9321 9.78217 28.9321C11.2168 28.9321 12.8556 28.7321 14.0855 28.1328V21.9344H11.0112V25.733Z" fill="#F0F0F0"/>
<path d="M20.0289 25.733V22.7353H24.9473V20.5356H20.0289V18.1379C20.0289 17.9379 20.2336 17.7365 20.4383 17.7365C22.8977 17.7365 24.1267 17.7365 25.5617 17.9379V15.3389H16.9546V28.5325H25.7669V26.1328H20.4383C20.2336 26.1328 20.0289 25.933 20.0289 25.733Z" fill="#F0F0F0"/>
<path d="M36.8327 22.7356C36.8327 22.9349 36.8327 22.9349 36.628 22.9349L31.5041 15.3389H28.4307V28.5325H31.0947V19.9363C32.3237 21.5351 35.3981 26.3328 36.8327 28.5325H39.7019V15.3389H36.8327V22.7356Z" fill="#F0F0F0"/>
<path d="M41.5464 18.1379C42.5709 17.9379 44.0053 17.9379 45.235 17.9379C45.4394 17.9379 45.6451 18.1379 45.6451 18.337V28.5325H48.7189V18.337C48.7189 18.1379 48.9238 17.9379 49.1288 17.9379C50.5634 17.9379 51.998 17.9379 53.0223 18.1379V15.3389H41.5464V18.1379Z" fill="#F0F0F0"/>
<path d="M57.7355 25.733V22.7353H62.6536V20.5356H57.7355V18.1379C57.7355 17.9379 57.9402 17.7365 58.1451 17.7365C60.604 17.7365 61.8339 17.7365 63.2683 17.9379V15.3389H54.6616V28.5325H63.4732V26.1328H58.1451C57.9402 26.1328 57.7355 25.933 57.7355 25.733Z" fill="#F0F0F0"/>
<path d="M83.9649 15.3391H80.8941C80.2784 17.5377 78.0235 22.7359 76.3842 26.9333L73.307 22.7359C74.9463 22.1356 75.9763 20.7359 75.9763 19.1373C75.9763 16.3384 73.515 15.1387 70.8505 15.1387C68.8018 15.1387 68.1859 15.3391 65.9326 15.3391V28.5328H69.2112V23.7352H69.8254C70.2364 23.7352 70.4413 23.9349 70.8505 24.5345L74.13 28.5328H78.6392C79.0471 27.5326 79.4555 26.5328 79.8707 25.3337H84.7883C85.1963 26.5328 85.4035 27.5326 85.8122 28.5328H89.0905L83.9649 15.3391ZM70.2364 21.5354H69.2112V18.1382C69.2112 17.7368 69.4161 17.5377 70.4413 17.5377C71.4664 17.5377 72.4907 18.1382 72.4907 19.337C72.4907 20.7359 71.6677 21.5354 70.2364 21.5354ZM80.8941 22.9349C81.302 21.9349 81.7097 20.5361 82.3254 19.1373C82.9413 20.5361 83.349 21.7352 83.765 22.9349H80.8941Z" fill="#F0F0F0"/>
<path d="M116.14 4.54422C116.963 4.54422 117.572 4.34375 118.187 4.34375C118.803 7.94234 119.011 10.7407 118.803 13.14C116.348 13.34 113.477 13.7391 110.607 14.5388C108.76 15.1384 106.921 15.7384 105.074 16.5377C105.281 16.1384 105.281 15.7384 105.281 15.1384C105.69 12.3398 106.098 9.74117 106.506 7.34281C109.376 5.74281 112.655 4.74375 116.14 4.54422Z" fill="#F0F0F0"/>
<path d="M102.411 4.14428C103.842 3.54427 105.689 2.94451 107.737 2.34521C107.121 3.74404 106.92 5.54357 106.505 7.34287C99.9489 10.5415 95.2384 16.5377 93.5991 23.5349V22.9349C92.5755 19.137 92.1612 15.9386 92.5755 13.5396C93.1912 9.3417 95.854 6.74287 102.411 4.14428Z" fill="#F0F0F0"/>
<path d="M117.371 16.5376H118.188C117.163 19.3369 115.525 21.535 112.453 23.7348C109.992 25.5334 107.737 26.7324 105.69 27.5324C106.306 21.735 111.016 17.1371 117.371 16.5376Z" fill="#F0F0F0"/>
<path d="M93.5991 23.535C94.6234 26.9331 97.2861 28.7324 101.18 28.5327C103.027 24.9338 104.458 20.7357 105.074 16.5376C100.772 18.5376 96.8774 21.1355 93.5991 23.535Z" fill="#F0F0F0"/>
<path d="M124.541 6.73421L123.643 5.51332C123.988 5.3868 124.205 5.09219 124.205 4.75534C124.205 4.1659 123.686 3.91309 123.125 3.91309C122.693 3.91309 122.564 3.95534 122.089 3.95534V6.73421H122.78V5.72388H122.909C122.996 5.72388 123.039 5.76614 123.125 5.89243L123.816 6.73421H124.541ZM122.996 5.26074H122.78V4.54478C122.78 4.4605 122.823 4.41872 123.039 4.41872C123.255 4.41872 123.47 4.54478 123.47 4.79759C123.47 5.09219 123.297 5.26074 122.996 5.26074Z" fill="#F0F0F0"/>
<path d="M123.213 3.17127C121.95 3.17127 120.922 4.19098 120.922 5.44427C120.922 6.69732 121.95 7.71704 123.213 7.71704C124.476 7.71704 125.504 6.69732 125.504 5.44427C125.504 4.19098 124.476 3.17127 123.213 3.17127ZM123.213 7.95178C121.819 7.95178 120.685 6.8269 120.685 5.44427C120.685 4.06141 121.819 2.93652 123.213 2.93652C124.607 2.93652 125.741 4.06141 125.741 5.44427C125.741 6.8269 124.607 7.95178 123.213 7.95178Z" fill="#F0F0F0"/>
</g>
<defs>
<clipPath id="clip0_155_51">
<rect width="128" height="32" fill="white"/>
</clipPath>
</defs>
</svg>
