<svg width="128" height="32" viewBox="0 0 128 32" fill="none" xmlns="http://www.w3.org/2000/svg">
<path d="M28.2465 3.53418C26.556 3.53418 24.2101 4.24917 22.5084 6.56644C22.1968 6.99043 21.9402 7.52873 21.7899 8.05895C21.269 9.86406 21.6353 11.8538 22.7773 13.3765C23.6527 14.5487 24.7695 15.4273 25.7548 16.2002C26.2379 16.5797 27.2601 17.5359 27.59 17.9421C28.0828 18.551 28.4573 18.9121 28.9019 20.2538C29.1708 21.0692 29.2108 22.1396 29.0784 22.7477C32.1652 19.6517 35.537 15.6311 35.537 11.2615C35.537 6.23919 31.901 3.53418 28.2465 3.53418Z" fill="#F0F0F0"/>
<path d="M21.8031 20.3689C20.5191 18.6059 19.0379 17.5348 17.8129 16.4065C17.2798 15.9175 16.6962 15.5522 16.2615 15.1173C14.1872 13.0365 13.2173 10.4673 13.7073 7.30682C14.0943 4.82878 15.3131 3.20125 16.785 2.00504C15.0283 0.704765 12.9432 0 10.5881 0C4.74166 0 -0.146065 4.74491 0.00333687 10.5962C0.268197 21.1591 13.3649 30.1566 18.7598 32C21.6476 30.5045 23.179 27.7142 23.179 24.8528C23.179 22.7657 22.2926 21.0423 21.8031 20.3689Z" fill="#F0F0F0"/>
<path d="M44.6733 19.8237C45.6878 20.5349 47.6904 21.4477 49.1099 21.4477C50.201 21.4477 51.1381 21.0421 51.1381 19.8748C51.1381 18.7327 49.6683 18.3267 48.1728 17.7427C46.4475 17.0827 44.7235 16.0422 44.7235 13.3014C44.7235 9.64789 47.4369 7.71875 51.367 7.71875C53.953 7.71875 56.2599 9.01246 57.4516 10.3837L54.8651 13.0728C53.699 12.084 52.4067 11.3477 51.1638 11.3477C50.1492 11.3477 49.3902 11.7536 49.3902 12.667C49.3902 13.911 50.4797 14.2156 52.3303 14.9773C54.1049 15.7124 55.9304 16.7791 55.9304 19.3927C55.9304 22.9451 53.0406 25.2298 48.9334 25.2298C46.042 25.2298 43.6079 24.0363 42.6445 23.2756L44.6733 19.8237Z" fill="#F0F0F0"/>
<path d="M65.0907 18.6052C65.2427 17.7931 65.2929 17.0578 65.2929 16.4989C65.2929 15.2803 64.9132 14.545 64.0254 14.545C62.8342 14.545 62.0474 15.7122 61.6676 17.819C61.5152 18.6314 61.4393 19.4939 61.4393 20.1537C61.4393 21.2702 61.7442 22.1836 62.6823 22.1836C63.9238 22.1836 64.6585 21.0925 65.0907 18.6052ZM64.7355 11.5C66.5359 11.5 69.7045 12.1849 69.7045 16.3976C69.7045 16.9566 69.6798 17.6155 69.5777 18.3007C68.7925 23.2754 65.6481 25.2801 62.0474 25.2801C58.9046 25.2801 57.1289 23.4531 57.1289 20.2047C57.1289 19.5951 57.1545 18.8596 57.2813 18.1488C58.219 12.8196 61.8195 11.5 64.7355 11.5Z" fill="#F0F0F0"/>
<path d="M74.6563 24.8744H70.4224L72.2725 14.3426L72.3752 11.8804H75.7715L75.8485 13.6825C76.7867 12.0838 78.1051 11.5 79.1694 11.5C79.9055 11.5 80.6899 11.6768 81.1977 12.0076L79.9803 15.5348C79.5005 15.2805 78.8903 15.0781 78.256 15.0781C77.1665 15.0781 76.3047 15.7374 76.0769 16.9305L74.6563 24.8744Z" fill="#F0F0F0"/>
<path d="M80.2903 24.874L82.5719 11.88L86.807 11.88L84.5243 24.8739L80.2903 24.874Z" fill="#F0F0F0"/>
<path d="M85.6906 6.34057C86.8831 6.3405 87.618 7.15233 87.618 8.14224C87.6181 9.48718 86.4515 10.5535 84.9562 10.5535C83.7392 10.5534 83.0547 9.81705 83.0547 8.80239C83.0547 7.48349 84.1704 6.34048 85.6906 6.34057Z" fill="#F0F0F0"/>
<path d="M95.9112 14.6719C95.6325 14.5451 95.2271 14.4683 94.7709 14.4683C92.4631 14.4683 91.6271 17.9452 91.6271 20.027C91.6271 21.2456 91.9062 22.234 93.1225 22.234C93.9847 22.234 94.5934 21.676 94.8464 20.7879L95.9112 14.6719ZM98.7509 22.1329L98.5737 24.8742H94.9993V23.6817L94.872 23.6558C93.9847 24.6962 92.8444 25.2538 91.3223 25.2538C88.6099 25.2538 87.3926 23.25 87.3926 20.5085C87.3926 15.3064 90.2829 11.5 95.5827 11.5C96.6466 11.5 98.548 11.7534 100.451 12.515L98.7509 22.1329Z" fill="#F0F0F0"/>
<path d="M100.94 24.8744L102.764 14.4945L102.918 11.8804H106.416L106.467 13.2761C107.456 12.1851 108.774 11.5 110.473 11.5C112.578 11.5 113.845 12.4642 113.871 14.6462C113.871 15.0525 113.82 15.5607 113.744 16.0421L112.172 24.8744H107.938L109.255 17.2861C109.332 16.8803 109.459 16.2963 109.459 15.814C109.459 15.3065 109.255 14.7487 108.495 14.7487C107.405 14.7487 106.772 15.5607 106.593 16.6258L105.148 24.8744H100.94Z" fill="#F0F0F0"/>
<path d="M123.462 14.6719C123.182 14.5451 122.776 14.4683 122.32 14.4683C120.012 14.4683 119.176 17.9452 119.176 20.027C119.176 21.2456 119.455 22.234 120.672 22.234C121.534 22.234 122.143 21.676 122.396 20.7879L123.462 14.6719ZM126.301 22.1329L126.124 24.8742H122.549V23.6817L122.422 23.6558C121.534 24.6962 120.394 25.2538 118.872 25.2538C116.159 25.2538 114.942 23.25 114.942 20.5085C114.942 15.3064 117.832 11.5 123.132 11.5C124.196 11.5 126.097 11.7534 128 12.515L126.301 22.1329Z" fill="#F0F0F0"/>
</svg>
