<svg width="137" height="32" viewBox="0 0 137 32" fill="none" xmlns="http://www.w3.org/2000/svg">
<g clip-path="url(#clip0_155_108)">
<mask id="mask0_155_108" style="mask-type:luminance" maskUnits="userSpaceOnUse" x="108" y="0" width="29" height="32">
<path d="M137 0.0673828H108.3V32H137V0.0673828Z" fill="white"/>
</mask>
<g mask="url(#mask0_155_108)">
<path d="M128.557 14.5855C129.231 14.4488 135.197 11.7563 135.729 11.4535C136.945 10.7621 137.361 9.23096 136.66 8.03402C135.957 6.83655 134.403 6.42621 133.188 7.11755C132.655 7.42038 127.305 11.1629 126.848 11.6696C126.323 12.2507 126.233 13.0815 126.621 13.7425C127.008 14.4041 127.784 14.742 128.557 14.5855Z" fill="#F0F0F0"/>
<path d="M135.729 20.547C135.197 20.2447 129.231 17.5518 128.557 17.4155C127.784 17.2585 127.008 17.5965 126.621 18.258C126.233 18.9195 126.323 19.7509 126.848 20.331C127.305 20.8376 132.655 24.5807 133.188 24.883C134.403 25.5748 135.958 25.164 136.66 23.967C137.361 22.7696 136.944 21.2384 135.729 20.547Z" fill="#F0F0F0"/>
<path d="M122.651 20.5156C121.875 20.5156 121.19 21.0084 120.941 21.7456C120.725 22.3895 120.109 28.824 120.109 29.4296C120.109 30.8118 121.247 31.9331 122.651 31.9331C124.055 31.9331 125.193 30.8123 125.193 29.4296C125.193 28.824 124.577 22.389 124.36 21.7456C124.111 21.0079 123.426 20.5156 122.651 20.5156Z" fill="#F0F0F0"/>
<path d="M116.744 17.4155C116.07 17.5517 110.103 20.2442 109.572 20.547C108.355 21.2389 107.94 22.77 108.641 23.967C109.343 25.1645 110.898 25.5748 112.113 24.8829C112.646 24.5801 117.996 20.8376 118.453 20.3309C118.978 19.7498 119.068 18.9195 118.68 18.258C118.293 17.597 117.517 17.2585 116.744 17.4155Z" fill="#F0F0F0"/>
<path d="M112.113 7.11755C110.897 6.42621 109.343 6.83655 108.641 8.03402C107.939 9.2315 108.356 10.7627 109.571 11.4535C110.104 11.7563 116.07 14.4488 116.744 14.5855C117.517 14.742 118.293 14.4046 118.68 13.7425C119.068 13.0815 118.977 12.2502 118.454 11.6696C117.996 11.1629 112.646 7.42038 112.113 7.11755Z" fill="#F0F0F0"/>
<path d="M122.651 0.0673828C121.247 0.0673828 120.109 1.18801 120.109 2.57096C120.109 3.17645 120.725 9.61152 120.941 10.2555C121.19 10.9931 121.875 11.4854 122.651 11.4854C123.426 11.4854 124.111 10.9926 124.36 10.2555C124.577 9.61152 125.193 3.17699 125.193 2.57096C125.193 1.18854 124.055 0.0673828 122.651 0.0673828Z" fill="#F0F0F0"/>
</g>
<mask id="mask1_155_108" style="mask-type:luminance" maskUnits="userSpaceOnUse" x="0" y="6" width="99" height="20">
<path d="M98.5541 6.98633H0V25.0815H98.5541V6.98633Z" fill="white"/>
</mask>
<g mask="url(#mask1_155_108)">
<path d="M19.3883 6.98633L17.0185 18.5699L14.3597 6.98633H9.74186L7.08296 18.5699L4.71462 6.98633H0L3.84448 24.6807H9.33097L12.0148 12.9322L14.6986 24.6807H20.0648L23.8843 6.98633H19.3883Z" fill="#F0F0F0"/>
<path d="M29.0217 22.2275C27.9576 22.2275 27.3782 21.5904 27.3782 20.7181C27.3782 19.5856 28.2966 19.1375 29.4571 18.7362C30.0619 18.5143 30.6679 18.2838 31.0773 17.9347V19.8921C31.0773 21.3786 30.2791 22.2275 29.0228 22.2275M29.6509 10.2432C26.7252 10.2432 24.6707 11.2113 23.921 11.8941V15.6691C24.7909 14.9144 26.6282 13.8058 29.0466 13.8058C30.5444 13.8058 31.1005 14.2071 31.1005 15.0331C31.1005 15.7404 30.3273 16.024 28.1748 16.4722C24.9117 17.1326 23.0259 18.2897 23.0259 21.0492C23.0259 23.5969 24.7427 25.0833 27.2326 25.0833C29.3179 25.0833 30.5639 24.1392 31.2462 22.8704V24.682H35.7418V15.9996C35.7418 12.0128 33.6142 10.2432 29.6493 10.2432" fill="#F0F0F0"/>
<path d="M42.0915 6.98633H37.4253V24.6807H42.0915V6.98633Z" fill="#F0F0F0"/>
<path d="M60.8168 10.2905C58.5528 10.2905 57.0896 11.6179 56.325 13.3864C55.9146 11.4917 54.551 10.2905 52.6449 10.2905C50.4865 10.2905 49.0797 11.5189 48.3665 13.2443V10.6913H43.7734V24.682H48.4396V16.9208C48.4396 15.0102 49.0927 13.925 50.4941 13.925C51.6296 13.925 52.0173 14.6797 52.0173 15.8596V24.6836H56.6835V16.9219C56.6835 15.0118 57.336 13.9261 58.7374 13.9261C59.8735 13.9261 60.2607 14.6807 60.2607 15.8606V24.6852H64.9268V15.2209C64.9268 12.2719 63.5005 10.2905 60.8168 10.2905Z" fill="#F0F0F0"/>
<path d="M71.9371 22.2275C70.8736 22.2275 70.2937 21.5904 70.2937 20.7181C70.2937 19.5856 71.2126 19.1375 72.373 18.7362C72.9779 18.5143 73.5838 18.2838 73.9932 17.9347V19.8921C73.9932 21.3786 73.195 22.2275 71.9371 22.2275ZM72.5653 10.2432C69.6395 10.2432 67.585 11.2113 66.8351 11.8941V15.6691C67.7053 14.9144 69.5426 13.8058 71.961 13.8058C73.4588 13.8058 74.0149 14.2071 74.0149 15.0331C74.0149 15.7404 73.2416 16.024 71.0891 16.4722C67.826 17.1326 65.9399 18.2897 65.9399 21.0492C65.9399 23.5969 67.6571 25.0833 70.1469 25.0833C72.2322 25.0833 73.4783 24.1392 74.1605 22.8704V24.682H78.6561V15.9996C78.6561 12.0128 76.5286 10.2432 72.5637 10.2432" fill="#F0F0F0"/>
<path d="M84.8222 14.6433V10.6911H80.2529V24.6818H84.9191V18.736C84.9191 15.9993 86.6595 15.2675 88.3279 15.2675C88.884 15.2675 89.4152 15.3378 89.6573 15.4096V10.5963C87.0321 10.4734 85.4373 12.1089 84.8222 14.6433Z" fill="#F0F0F0"/>
<path d="M98.5541 14.23V10.6913H95.5812V7.97754H90.915V20.0092C90.915 23.3834 92.872 24.9641 95.9917 24.9641C97.4429 24.9641 98.2162 24.6805 98.5541 24.4686V20.9528C98.2882 21.1423 97.8523 21.2839 97.2961 21.2839C96.2575 21.3068 95.5796 20.8586 95.5796 19.3738V14.23H98.5524H98.5541Z" fill="#F0F0F0"/>
</g>
</g>
<defs>
<clipPath id="clip0_155_108">
<rect width="137" height="32" fill="white"/>
</clipPath>
</defs>
</svg>
