<svg width="148" height="32" viewBox="0 0 148 32" fill="none" xmlns="http://www.w3.org/2000/svg">
<path d="M16.5459 3.49581C16.5459 6.70039 21.8374 10.2596 21.8374 13.9196C21.8374 13.9196 21.8374 14.2733 21.6908 14.65C26.6386 15.7107 30.1428 18.2106 30.1428 21.1389C30.1428 25.0765 23.8949 28.3338 16.1525 28.3338C8.24547 28.3338 2.1167 25.1302 2.1167 21.2901C2.1167 18.3636 5.91369 15.9879 10.4961 14.7279C10.4961 16.343 15.7095 21.4683 15.8349 23.5361C15.8503 23.7735 15.8958 23.9741 15.8349 24.2184C16.9627 23.6126 16.9627 21.7185 16.9627 21.7185C16.9627 17.2264 11.8918 15.2323 11.8918 10.8149C11.8918 9.09764 12.6767 7.8367 13.3854 7.48389V8.72009C13.3854 11.9256 18.8723 15.5095 18.8723 18.4383V19.3977C20.1475 18.8937 20.1475 16.4942 20.1475 16.4942C20.1475 12.4557 15.0518 10.2087 15.0518 5.58974C15.0518 3.87473 15.8349 2.61288 16.5459 2.25732V3.49581Z" fill="#F0F0F0"/>
<path d="M41.2628 27.0928C38.5941 27.0928 36.6602 26.3115 36.6602 26.3115V21.5427H37.3215C37.6634 24.0655 39.5243 25.9812 41.6539 25.9812C43.7845 25.9812 45.2782 24.7711 45.2782 22.854C45.2782 20.8105 43.2942 19.8781 41.9724 19.1977L40.0629 18.213C38.2517 17.2802 36.7833 15.7645 36.7833 13.6472C36.7833 10.9984 38.6933 8.72852 42.3396 8.72852C44.8365 8.72852 46.8931 9.5867 46.8931 9.5867V13.8479H46.2322C45.8407 11.5785 44.6168 9.78739 42.1195 9.78739C40.2582 9.78739 39.1575 11.1001 39.1575 12.4362C39.1575 14.1773 40.3322 14.9594 41.7031 15.6655L43.6131 16.6474C45.3503 17.5574 47.5057 19.0708 47.5057 21.644C47.5057 24.9223 45.3016 27.0928 41.2628 27.0928Z" fill="#F0F0F0"/>
<path d="M52.5973 26.9901C50.9327 26.9901 49.855 25.8547 49.855 24.1668C49.855 22.9553 50.7121 22.0215 52.5973 21.3145L55.9026 20.0802V19.0176C55.9026 17.4309 55.1925 16.4467 54.1153 16.4467C53.3799 16.4467 52.646 16.8257 52.2779 17.4309C52.1326 17.6563 52.1083 17.9867 52.1083 18.2373C52.1083 18.6657 52.3758 19.1702 52.3758 19.1702L50.7613 19.9276C50.5655 19.5757 50.321 19.0456 50.321 18.515C50.321 18.4156 50.3444 18.3138 50.3444 18.2373C50.4676 17.3297 51.2264 16.7239 52.2544 16.0948C53.2586 15.4644 54.1153 15.2861 54.7265 15.2861C57.8126 15.2861 58.3498 17.808 58.3498 18.641V23.863C58.3498 24.6941 58.4243 25.2256 59.0847 25.2256C59.28 25.2256 59.4023 25.2256 59.6729 25.1239L60.2607 24.9219V25.6788L56.8318 26.9901C56.318 26.6135 56.0726 25.9313 55.9761 25.3516C55.1681 26.0586 53.7729 26.9901 52.5973 26.9901ZM53.601 21.8941C53.0858 22.1232 52.1804 22.5516 52.1804 23.7617C52.1804 24.4169 52.5486 25.4781 53.8216 25.4781C54.4342 25.4781 55.2904 25.1239 55.9026 24.6199V20.8852L53.601 21.8941Z" fill="#F0F0F0"/>
<path d="M61.0186 26.7377V26.1356L61.8269 25.9812C62.3155 25.8795 62.6583 25.5028 62.6583 24.9965V18.2625C62.6583 17.6834 62.3904 17.3796 61.8991 17.3796C61.7286 17.3796 61.5319 17.4066 61.3361 17.4809L61.0186 17.6069V16.8504L64.5426 15.2861H65.0578V17.1537C66.1337 15.9152 67.4072 15.2861 68.5345 15.2861C71.0305 15.2861 72.2304 17.129 72.2304 19.2719V24.9965C72.2304 25.5028 72.5976 25.9065 73.088 25.9812L73.9198 26.1356V26.7377H68.0929V26.1356L68.9012 25.9812C69.3902 25.8795 69.7827 25.5028 69.7827 24.9965V19.2985C69.7827 18.5397 69.5856 16.8504 67.6273 16.8504C66.5501 16.8504 65.6447 17.5326 65.107 18.0366V24.9965C65.107 25.5028 65.4976 25.8795 65.988 25.9812L66.7946 26.1356V26.7377H61.0186Z" fill="#F0F0F0"/>
<path d="M82.3652 16.8257H78.9372V23.0828C78.9372 24.4693 79.6482 25.2257 80.6754 25.2257C81.0922 25.2257 81.7526 25.0997 82.3652 24.7465L82.6354 25.3517L80.43 26.7895C80.43 26.7895 79.9901 26.8642 79.7713 26.8642C77.6403 26.8642 76.49 25.5794 76.49 22.8541V16.8257H74.7031V16.1966C74.7031 16.1966 77.3953 15.1355 78.4482 12.5366H78.9372V15.7394H82.8064L82.3652 16.8257Z" fill="#F0F0F0"/>
<path d="M86.4954 26.9901C84.8313 26.9901 83.7554 25.8547 83.7554 24.1668C83.7554 22.9553 84.6116 22.0215 86.4954 21.3145L89.8011 20.0802V19.0176C89.8011 17.4309 89.0915 16.4467 88.0143 16.4467C87.2799 16.4467 86.5437 16.8257 86.1787 17.4309C86.0321 17.6563 86.0064 17.9867 86.0064 18.2373C86.0064 18.6657 86.2775 19.1702 86.2775 19.1702L84.6607 19.9276C84.4636 19.5757 84.2205 19.0456 84.2205 18.515C84.2205 18.4156 84.2457 18.3138 84.2457 18.2373C84.3657 17.3297 85.1254 16.7239 86.153 16.0948C87.1581 15.4644 88.0143 15.2861 88.6246 15.2861C91.712 15.2861 92.2511 17.808 92.2511 18.641V23.863C92.2511 24.6941 92.3237 25.2256 92.9842 25.2256C93.179 25.2256 93.3031 25.2256 93.5715 25.1239L94.1593 24.9219V25.6788L90.7331 26.9901C90.2189 26.6135 89.9744 25.9313 89.8756 25.3516C89.0676 26.0586 87.6719 26.9901 86.4954 26.9901ZM87.5009 21.8941C86.9867 22.1232 86.0808 22.5516 86.0808 23.7617C86.0808 24.4169 86.4462 25.4781 87.7211 25.4781C88.3323 25.4781 89.1903 25.1239 89.8011 24.6199V20.8852L87.5009 21.8941Z" fill="#F0F0F0"/>
<path d="M94.917 26.7377V26.1356L95.7258 25.9812C96.2144 25.8795 96.5581 25.5028 96.5581 24.9965V18.2625C96.5581 17.6834 96.2875 17.3796 95.7985 17.3796C95.6279 17.3796 95.4322 17.4066 95.2355 17.4809L94.917 17.6069V16.8504L98.4429 15.2861H98.9571V17.1537C100.035 15.9152 101.307 15.2861 102.432 15.2861C104.928 15.2861 106.13 17.129 106.13 19.2719V24.9965C106.13 25.5028 106.497 25.9065 106.986 25.9812L107.818 26.1356V26.7377H101.993V26.1356L102.801 25.9812C103.29 25.8795 103.681 25.5028 103.681 24.9965V19.2985C103.681 18.5397 103.485 16.8504 101.527 16.8504C100.45 16.8504 99.5445 17.5326 99.0054 18.0366V24.9965C99.0054 25.5028 99.3988 25.8795 99.8869 25.9812L100.695 26.1356V26.7377H94.917Z" fill="#F0F0F0"/>
<path d="M114.036 26.9899C111.735 26.9899 108.968 25.2254 108.968 21.3913C108.968 18.0359 111.49 15.2859 114.87 15.2859C115.996 15.2859 116.805 15.5141 117.391 15.7665V9.98967C117.391 9.38348 117.073 9.20754 116.681 9.20754C116.461 9.20754 116.217 9.2584 115.996 9.33262L115.506 9.50994V8.7521L119.327 7.08887H119.84V23.7115C119.84 24.6714 119.985 25.2254 120.647 25.2254C120.843 25.2254 120.965 25.2254 121.234 25.1237L121.822 24.9216V25.6785L118.395 26.9899C117.857 26.6132 117.587 25.9058 117.465 25.3267C116.828 26.0323 115.678 26.9899 114.036 26.9899ZM115.138 16.347C113.376 16.347 111.564 17.5054 111.564 20.885C111.564 23.7115 112.936 25.4261 115.089 25.4261C116.387 25.4261 117.196 24.6439 117.391 24.2407V17.6831C117.073 16.8501 116.168 16.347 115.138 16.347Z" fill="#F0F0F0"/>
<path d="M125.395 20.2309V20.3569C125.371 23.7118 127.232 25.4011 129.557 25.4011C130.731 25.4011 131.81 24.9466 132.666 24.2676V25.2751C131.686 26.2094 130.195 26.9897 128.358 26.9897C124.54 26.9897 122.85 24.0398 122.85 21.2403C122.85 17.9588 125.273 15.2861 128.406 15.2861C130.977 15.2861 132.984 17.1537 132.984 19.9029V20.2309H125.395ZM130.413 19.1972V19.1473C130.413 17.255 129.387 16.345 128.161 16.345C126.791 16.345 125.762 17.2797 125.469 19.1972H130.413Z" fill="#F0F0F0"/>
<path d="M134.428 26.7373V26.1353L135.236 25.9809C135.703 25.8792 136.069 25.5025 136.069 24.9962V18.2622C136.069 17.6831 135.8 17.3793 135.311 17.3793C135.139 17.3793 134.943 17.4063 134.749 17.4805L134.428 17.6065V16.8501L137.904 15.2858H138.42V17.733C139.301 15.9676 140.354 15.2363 141.553 15.2363C142.533 15.2363 142.777 15.4888 142.777 15.4888V18.1628H142.289C142.165 17.4558 141.7 17.1039 140.966 17.1039C140.183 17.1039 139.204 17.3293 138.518 18.7919V24.9962C138.518 25.5025 139.007 25.9062 139.473 25.9809L140.649 26.1353V26.7373H134.428Z" fill="#F0F0F0"/>
</svg>
