<svg width="162" height="32" viewBox="0 0 162 32" fill="none" xmlns="http://www.w3.org/2000/svg">
<rect width="32" height="32" rx="8" fill="#00D46E"/>
<path d="M15.9792 25L7.83333 18.5833L9.81249 17.0208L15.9792 21.875L22.1875 17.0208L24.1667 18.5833L15.9792 25ZM15.9792 19.7917L7.83333 13.3958L15.9792 7L24.125 13.3958L15.9792 19.7917ZM15.9792 16.6667L20.125 13.3958L15.9792 10.1458L11.8333 13.3958L15.9792 16.6667Z" fill="#0D0D0D"/>
<path d="M155.86 24.82C155.068 24.82 154.344 24.658 153.688 24.334C153.032 24.01 152.498 23.57 152.086 23.014C151.674 22.458 151.436 21.836 151.372 21.148V16.228C151.436 15.54 151.676 14.928 152.092 14.392C152.508 13.856 153.044 13.436 153.7 13.132C154.356 12.828 155.076 12.676 155.86 12.676C156.964 12.676 157.944 12.94 158.8 13.468C159.656 13.996 160.328 14.718 160.816 15.634C161.304 16.55 161.548 17.592 161.548 18.76C161.548 19.92 161.304 20.956 160.816 21.868C160.328 22.78 159.656 23.5 158.8 24.028C157.944 24.556 156.964 24.82 155.86 24.82ZM149.14 24.58V7.156H152.812V15.784L152.2 18.604L152.752 21.448V24.58H149.14ZM155.212 21.508C155.724 21.508 156.176 21.39 156.568 21.154C156.96 20.918 157.268 20.592 157.492 20.176C157.716 19.76 157.828 19.284 157.828 18.748C157.828 18.212 157.716 17.736 157.492 17.32C157.268 16.904 156.958 16.578 156.562 16.342C156.166 16.106 155.712 15.988 155.2 15.988C154.688 15.988 154.234 16.106 153.838 16.342C153.442 16.578 153.136 16.902 152.92 17.314C152.704 17.726 152.596 18.204 152.596 18.748C152.596 19.292 152.706 19.772 152.926 20.188C153.146 20.604 153.454 20.928 153.85 21.16C154.246 21.392 154.7 21.508 155.212 21.508Z" fill="#F0F0F0"/>
<path d="M140.332 24.82C139.26 24.82 138.302 24.556 137.458 24.028C136.614 23.5 135.95 22.78 135.466 21.868C134.982 20.956 134.74 19.92 134.74 18.76C134.74 17.592 134.982 16.55 135.466 15.634C135.95 14.718 136.614 13.996 137.458 13.468C138.302 12.94 139.26 12.676 140.332 12.676C141.116 12.676 141.824 12.828 142.456 13.132C143.088 13.436 143.602 13.856 143.998 14.392C144.394 14.928 144.62 15.54 144.676 16.228V21.268C144.62 21.956 144.396 22.568 144.004 23.104C143.612 23.64 143.098 24.06 142.462 24.364C141.826 24.668 141.116 24.82 140.332 24.82ZM141.076 21.508C141.86 21.508 142.492 21.25 142.972 20.734C143.452 20.218 143.692 19.556 143.692 18.748C143.692 18.204 143.584 17.726 143.368 17.314C143.152 16.902 142.848 16.578 142.456 16.342C142.064 16.106 141.608 15.988 141.088 15.988C140.576 15.988 140.124 16.106 139.732 16.342C139.34 16.578 139.03 16.904 138.802 17.32C138.574 17.736 138.46 18.212 138.46 18.748C138.46 19.284 138.572 19.76 138.796 20.176C139.02 20.592 139.33 20.918 139.726 21.154C140.122 21.39 140.572 21.508 141.076 21.508ZM143.536 24.58V21.448L144.088 18.604L143.536 15.784V12.916H147.148V24.58H143.536Z" fill="#F0F0F0"/>
<path d="M123.112 24.58V7.636H126.892V24.58H123.112ZM126.016 24.58V21.28H134.404V24.58H126.016Z" fill="#F0F0F0"/>
<path d="M115.468 24.58V8.092H119.14V24.58H115.468ZM112.828 16.036V12.916H121.78V16.036H112.828Z" fill="#F0F0F0"/>
<path d="M108.34 24.844C107.132 24.844 106.042 24.58 105.07 24.052C104.098 23.524 103.332 22.798 102.772 21.874C102.212 20.95 101.932 19.912 101.932 18.76C101.932 17.592 102.214 16.548 102.778 15.628C103.342 14.708 104.112 13.982 105.088 13.45C106.064 12.918 107.16 12.652 108.376 12.652C109.288 12.652 110.124 12.81 110.884 13.126C111.644 13.442 112.32 13.908 112.912 14.524L110.572 16.876C110.3 16.58 109.982 16.358 109.618 16.21C109.254 16.062 108.84 15.988 108.376 15.988C107.856 15.988 107.392 16.104 106.984 16.336C106.576 16.568 106.254 16.888 106.018 17.296C105.782 17.704 105.664 18.184 105.664 18.736C105.664 19.28 105.782 19.76 106.018 20.176C106.254 20.592 106.578 20.918 106.99 21.154C107.402 21.39 107.864 21.508 108.376 21.508C108.864 21.508 109.294 21.426 109.666 21.262C110.038 21.098 110.36 20.86 110.632 20.548L112.972 22.9C112.356 23.54 111.666 24.024 110.902 24.352C110.138 24.68 109.284 24.844 108.34 24.844Z" fill="#F0F0F0"/>
<path d="M95.536 24.844C94.4752 24.844 93.532 24.624 92.7064 24.184C91.8808 23.744 91.234 23.1346 90.766 22.3558C90.298 21.5771 90.064 20.6833 90.064 19.6746V12.916H93.736V19.636C93.736 20.0372 93.8075 20.3828 93.9505 20.6727C94.0935 20.9626 94.3014 21.1863 94.5743 21.3438C94.8471 21.5013 95.169 21.58 95.5399 21.58C96.0893 21.58 96.524 21.4078 96.844 21.0633C97.164 20.7188 97.324 20.243 97.324 19.636V12.916H100.996V19.672C100.996 20.696 100.764 21.596 100.3 22.372C99.836 23.148 99.1943 23.754 98.3748 24.19C97.5554 24.626 96.6091 24.844 95.536 24.844Z" fill="#F0F0F0"/>
<path d="M81.652 24.82C80.548 24.82 79.5682 24.5561 78.7126 24.0283C77.857 23.5005 77.185 22.7805 76.6966 21.8683C76.2082 20.9561 75.964 19.9192 75.964 18.7575C75.964 17.5875 76.208 16.5454 76.696 15.6313C77.184 14.7171 77.8552 13.996 78.7097 13.468C79.5641 12.94 80.5449 12.676 81.652 12.676C82.444 12.676 83.166 12.828 83.818 13.132C84.47 13.436 85.006 13.856 85.426 14.392C85.846 14.928 86.084 15.54 86.14 16.228V21.148C86.084 21.836 85.848 22.458 85.432 23.014C85.016 23.57 84.48 24.01 83.824 24.334C83.168 24.658 82.444 24.82 81.652 24.82ZM82.3 21.508C82.828 21.508 83.2855 21.3913 83.6726 21.158C84.0597 20.9247 84.3637 20.6007 84.5846 20.186C84.8055 19.7713 84.916 19.292 84.916 18.748C84.916 18.2009 84.8071 17.7225 84.5895 17.3128C84.3718 16.9031 84.0678 16.5799 83.6775 16.3431C83.2871 16.1064 82.834 15.988 82.318 15.988C81.802 15.988 81.3483 16.1067 80.9569 16.3442C80.5655 16.5816 80.2555 16.9078 80.0269 17.3228C79.7983 17.7377 79.684 18.2128 79.684 18.748C79.684 19.284 79.7957 19.7598 80.019 20.1755C80.2424 20.5912 80.5533 20.9172 80.9519 21.1535C81.3504 21.3898 81.7998 21.508 82.3 21.508ZM88.372 24.58H84.76V21.448L85.312 18.604L84.7 15.784V7.156H88.372V24.58Z" fill="#F0F0F0"/>
<path d="M69.076 24.844C67.868 24.844 66.782 24.576 65.818 24.04C64.854 23.504 64.092 22.772 63.532 21.844C62.972 20.916 62.692 19.876 62.692 18.724C62.692 17.572 62.97 16.54 63.526 15.628C64.082 14.716 64.842 13.992 65.806 13.456C66.77 12.92 67.856 12.652 69.064 12.652C70.28 12.652 71.368 12.918 72.328 13.45C73.288 13.982 74.048 14.706 74.608 15.622C75.168 16.538 75.448 17.572 75.448 18.724C75.448 19.876 75.17 20.916 74.614 21.844C74.058 22.772 73.3 23.504 72.34 24.04C71.38 24.576 70.292 24.844 69.076 24.844ZM69.064 21.508C69.592 21.508 70.056 21.392 70.456 21.16C70.856 20.928 71.166 20.602 71.386 20.182C71.606 19.762 71.716 19.28 71.716 18.736C71.716 18.192 71.602 17.714 71.374 17.302C71.146 16.89 70.836 16.568 70.444 16.336C70.052 16.104 69.592 15.988 69.064 15.988C68.552 15.988 68.096 16.106 67.696 16.342C67.296 16.578 66.984 16.902 66.76 17.314C66.536 17.726 66.424 18.204 66.424 18.748C66.424 19.284 66.536 19.762 66.76 20.182C66.984 20.602 67.296 20.928 67.696 21.16C68.096 21.392 68.552 21.508 69.064 21.508Z" fill="#F0F0F0"/>
<path d="M54.148 24.58V12.916H57.82V24.58H54.148ZM57.82 18.184L56.272 16.984C56.576 15.616 57.092 14.556 57.8199 13.804C58.5479 13.052 59.5439 12.676 60.808 12.676C61.368 12.676 61.862 12.76 62.29 12.928C62.718 13.096 63.092 13.356 63.412 13.708L61.228 16.468C61.068 16.292 60.8696 16.158 60.6327 16.066C60.3958 15.974 60.1222 15.928 59.812 15.928C59.204 15.928 58.72 16.115 58.36 16.489C58 16.863 57.82 17.428 57.82 18.184Z" fill="#F0F0F0"/>
<path d="M42.892 18.412V15.484H46.54C47.0084 15.484 47.4315 15.3888 47.8093 15.1984C48.1872 15.0079 48.4881 14.7289 48.712 14.3612C48.936 13.9935 49.048 13.5478 49.048 13.024C49.048 12.5002 48.936 12.0545 48.712 11.6868C48.4881 11.3191 48.1872 11.0401 47.8093 10.8496C47.4315 10.6592 47.0084 10.564 46.54 10.564H42.892V7.636H47.08C48.16 7.636 49.132 7.854 49.996 8.29C50.86 8.726 51.544 9.34522 52.048 10.1477C52.552 10.9501 52.804 11.9081 52.804 13.0217C52.804 14.1272 52.552 15.084 52.048 15.892C51.544 16.7 50.86 17.322 49.996 17.758C49.132 18.194 48.16 18.412 47.08 18.412H42.892ZM40 24.58V7.636H43.78V24.58H40Z" fill="#F0F0F0"/>
</svg>
