<svg width="183" height="32" viewBox="0 0 183 32" fill="none" xmlns="http://www.w3.org/2000/svg">
<g clip-path="url(#clip0_155_200)">
<path d="M79.4023 18.621C79.6713 16.9577 80.6818 16.036 82.4343 16.036C83.9568 16.036 85.0322 17.2003 85.0322 18.621H79.4023ZM90.689 21.6758C90.689 15.6823 88.0396 12.2664 81.9029 12.2664C77.0204 12.2664 73.7458 15.9165 73.7458 20.4084C73.7458 25.5383 77.4661 28.451 82.4075 28.451C85.924 28.451 89.1672 26.9058 90.3548 23.5813H84.8492C84.3768 24.3202 83.3331 24.682 82.3747 24.682C80.5309 24.682 79.52 23.4372 79.3691 21.6758H90.689ZM93.5694 28.0652H99.4698V6.86609H93.5694V28.0652ZM107.98 18.621C108.25 16.9577 109.261 16.036 111.02 16.036C112.535 16.036 113.612 17.2003 113.612 18.621H107.98ZM119.268 21.6758C119.268 15.6823 116.617 12.2664 110.488 12.2664C105.598 12.2664 102.324 15.9165 102.324 20.4084C102.324 25.5383 106.052 28.451 110.993 28.451C114.505 28.451 117.747 26.9058 118.94 23.5813H113.434C112.956 24.3202 111.918 24.682 110.961 24.682C109.117 24.682 108.099 23.4372 107.955 21.6758H119.268ZM132.307 28.0652H125.339L120.28 12.6514H126.5L128.915 22.0362H128.974L131.415 12.6514H137.434L132.307 28.0652ZM139.607 12.6514H145.499V28.0652H139.607V12.6514ZM145.499 10.9906H139.607V6.86609H145.499V10.9906ZM157.948 17.1346C157.921 16.631 157.654 16.2449 157.265 15.9777C156.904 15.6823 156.425 15.5388 155.959 15.5388C155.125 15.5388 154.167 15.7164 154.167 16.7235C154.167 17.1683 154.53 17.3779 154.856 17.5277C155.841 17.9409 158.073 18.0577 160.033 18.7114C161.996 19.3352 163.722 20.4932 163.722 23.018C163.722 27.2919 159.614 28.451 155.866 28.451C152.231 28.451 148.242 26.9983 148.151 23.018H153.781C153.813 23.5557 154.049 23.9935 154.495 24.3796C154.798 24.6486 155.363 24.8248 156.078 24.8248C156.845 24.8248 158.073 24.5301 158.073 23.6418C158.073 22.7508 157.56 22.4817 154.824 22.0112C150.335 21.2387 148.512 19.8113 148.512 17.1683C148.512 13.2731 152.712 12.2664 155.815 12.2664C159.142 12.2664 163.159 13.1894 163.302 17.1346H157.948ZM176.414 22.5746C176.323 24.177 175.279 24.9753 173.934 24.9753C172.864 24.9753 172.097 24.2635 172.097 23.5557C172.097 22.5144 172.772 22.186 174.084 21.8871C174.891 21.7102 175.698 21.5006 176.414 21.1458V22.5746ZM182.063 18.2999C182.063 15.3282 182.13 12.2664 174.742 12.2664C171.08 12.2664 166.973 12.9791 166.792 17.3178H172.273C172.305 16.6641 172.654 15.7413 174.472 15.7413C175.429 15.7413 176.414 16.1268 176.414 17.1683C176.414 18.1498 175.608 18.385 174.799 18.5362C171.794 19.0996 166.077 18.9213 166.077 23.7913C166.077 27.0233 168.547 28.451 171.53 28.451C173.428 28.451 175.247 28.0378 176.499 26.6048H176.557C176.531 27.0233 176.624 27.6527 176.768 28.0652H182.772V28.0519C182.13 27.0697 182.063 25.7742 182.063 24.6212V18.2999ZM16.5042 1.38355H34.1575C31.4651 0.608512 28.5247 0.142578 25.3531 0.142578C22.1652 0.142578 19.2136 0.608512 16.5042 1.38355ZM25.3531 31.9998C30.677 31.9998 35.3574 30.7015 39.3119 28.8146H31.0649C29.3188 29.5952 27.3865 30.0278 25.3474 30.0278C23.3143 30.0278 21.3768 29.5952 19.6307 28.8146H11.395C15.3438 30.7015 20.0242 31.9998 25.3531 31.9998ZM32.1354 28.2808H40.3824C41.2325 27.837 42.0435 27.3658 42.8213 26.8823C44.2345 25.9947 45.519 25.0446 46.629 24.0283H36.8444C35.6222 25.7813 34.0112 27.236 32.1354 28.2808ZM7.88557 26.8759C8.65742 27.3658 9.47369 27.837 10.3252 28.2808H18.5602C16.6844 27.236 15.0733 25.7813 13.8509 24.0283H4.07819C5.18183 25.0446 6.47235 25.9947 7.88557 26.8759ZM37.4642 23.0623H47.6149C48.6459 21.9613 49.4572 20.7819 49.9918 19.5233H38.912C38.5904 20.7759 38.1007 21.9666 37.4642 23.0623ZM3.09231 23.0623H13.2366C12.6002 21.9666 12.1052 20.7759 11.7889 19.5233H0.709786C1.24398 20.7819 2.06095 21.9613 3.09231 23.0623ZM39.1483 18.3826H50.3916C50.5937 17.641 50.7016 16.8715 50.7016 16.0737C50.7016 15.7143 50.679 15.3661 50.6395 15.0173H39.3006C39.3288 15.3661 39.3404 15.7199 39.3404 16.0737C39.3404 16.8599 39.2784 17.6297 39.1483 18.3826ZM0 16.0737C0 16.8715 0.106486 17.641 0.315225 18.3826H11.5466C11.4236 17.6297 11.3555 16.8599 11.3555 16.0737C11.3555 15.7199 11.3668 15.3661 11.395 15.0173H0.0669942C0.0218613 15.3661 0 15.7143 0 16.0737ZM39.1317 13.636H50.3529C50.02 12.5122 49.4675 11.4505 48.7355 10.4504H38.1567C38.6024 11.4565 38.9346 12.5231 39.1317 13.636ZM0.34837 13.636H11.5699C11.7667 12.5231 12.0935 11.4565 12.5381 10.4504H1.95412C1.2274 11.4505 0.681578 12.5122 0.34837 13.636ZM37.3683 8.92218H47.434C46.6855 8.1475 45.829 7.4115 44.8939 6.70961H35.7231C36.343 7.389 36.8898 8.13062 37.3683 8.92218ZM3.23829 8.92218H13.3326C13.8057 8.13062 14.3579 7.389 14.9722 6.70961H5.76221C4.8324 7.4115 3.98228 8.1475 3.23829 8.92218ZM33.7295 4.8944H42.1845C41.3566 4.40069 40.4888 3.9228 39.5876 3.485H31.3924C32.2196 3.87779 33.0031 4.35568 33.7295 4.8944ZM8.46595 4.8944H16.9658C17.6985 4.35568 18.4752 3.87779 19.3035 3.485H11.0629C10.1553 3.9228 9.29351 4.40069 8.46595 4.8944ZM63.4428 12.2991H57.4835V6.86609H75.9439V12.2991H69.9906V28.0652H63.4428V12.2991Z" fill="#F0F0F0"/>
</g>
<defs>
<clipPath id="clip0_155_200">
<rect width="183" height="32" fill="white"/>
</clipPath>
</defs>
</svg>
